<svg xmlns="http://www.w3.org/2000/svg" viewBox="0 0 512 512">
  <rect width="512" height="512" rx="120" fill="#0B1220"/>
  <path d="M150 330c0-14.36 11.64-26 26-26h160c14.36 0 26 11.64 26 26v16c0 14.36-11.64 26-26 26H176c-14.36 0-26-11.64-26-26v-16Z" fill="#111A2E"/>
  <path d="M194 144h124c8.837 0 16 7.163 16 16v146c0 8.837-7.163 16-16 16H194c-8.837 0-16-7.163-16-16V160c0-8.837 7.163-16 16-16Z" fill="#3B82F6"/>
  <path d="M212 174h88v16h-88v-16Zm0 36h88v16h-88v-16Zm0 36h62v16h-62v-16Z" fill="#E5E7EB" opacity="0.92"/>
</svg>
